# xmcd
#
# Track frame offsets:
#	150
#	12569
#	24208
#	35335
#	47715
#	56063
#	63571
#	72123
#	85870
#	98663
#	107742
#	117215
#	127138
#	135863
#	143525
#	154256
#
# Disc length: 2177 seconds
#
# Revision: 1
# Processed by: cddbd v1.5.2PL0 Copyright (c) Steve Scherf et al.
# Submitted via: audiograbber 1.83.01
#
DISCID=d2087f10
DTITLE=Ward Allen - Tribute to Ward Allen
DYEAR=2001
DGENRE=Country
TTITLE0=Smiley Bates - Maple Sugar
TTITLE1=Erwin Deighan - Faded Love
TTITLE2=Benny Martin - Back Up and Push
TTITLE3=Eleanor Townsend - Dungannon Waltz/Waltz of the Bells
TTITLE4=Graham Townsend - Larry O'Gaffe
TTITLE5=Eddie Poirier - Heather on the Hill
TTITLE6=Eddie Poirier - Maple Sugar # 2
TTITLE7=Carl Elliot - Silver Wedding Waltz
TTITLE8=Gerry Malley - Fiddlin' for Fun
TTITLE9=Chuck Joyce - Fairy Lake Waltz
TTITLE10=Bill Sawyer - Joys of Quebec
TTITLE11=Bunty Petrie - Sugar in the Gourd
TTITLE12=Ian Hamilton - Gilles Roy Two Step
TTITLE13=Terri-Lynn Mahusky - Stratford Waltz
TTITLE14=Brent Williams - Turkey in the Straw
TTITLE15=Mac Wiseman (feat. Ward Allen on Fiddle) - Maple Sugar Sweetheart
EXTD=
EXTT0=
EXTT1=
EXTT2=
EXTT3=
EXTT4=
EXTT5=
EXTT6=
EXTT7=
EXTT8=
EXTT9=
EXTT10=
EXTT11=
EXTT12=
EXTT13=
EXTT14=
EXTT15=
PLAYORDER=
